<?xml version="1.0"?>
<svg xmlns="http://www.w3.org/2000/svg" height="512px" viewBox="0 -23 512 512" width="512px" class=""><g><path d="m477.089844 93.089844h-81.453125v-34.90625c-.039063-32.121094-26.066407-58.1445315-58.183594-58.183594h-162.90625c-32.117187.0390625-58.144531 26.0625-58.183594 58.183594v34.90625h-81.453125c-19.273437.023437-34.8867185 15.640625-34.910156 34.910156v128h209.453125v-34.910156c0-6.425782 5.210937-11.636719 11.636719-11.636719h69.820312c6.425782 0 11.636719 5.210937 11.636719 11.636719v34.910156h209.453125v-128c-.023438-19.269531-15.636719-34.886719-34.910156-34.910156zm-337.453125-34.90625c.019531-19.273438 15.636719-34.890625 34.910156-34.910156h162.90625c19.273437.019531 34.890625 15.636718 34.910156 34.910156v34.90625h-232.726562zm0 0" data-original="#000000" class="active-path" data-old_color="#000000" fill="#F6F8FB"/><path d="m232.726562 232.726562h46.546876v69.820313h-46.546876zm0 0" data-original="#000000" class="active-path" data-old_color="#000000" fill="#F6F8FB"/><path d="m302.546875 314.183594c0 6.425781-5.210937 11.636718-11.636719 11.636718h-69.820312c-6.425782 0-11.636719-5.210937-11.636719-11.636718v-34.910156h-209.453125v151.273437c.0234375 19.269531 15.636719 34.886719 34.910156 34.910156h442.179688c19.273437-.023437 34.886718-15.640625 34.910156-34.910156v-151.273437h-209.453125zm0 0" data-original="#000000" class="active-path" data-old_color="#000000" fill="#F6F8FB"/><script xmlns="" class="active-path" style=""/></g> </svg>
