<?xml version="1.0"?>
<svg xmlns="http://www.w3.org/2000/svg" id="Layer_1" enable-background="new 0 0 2000 2000" height="512px" viewBox="0 0 2000 2000" width="512px"><g><g><g><path d="m256 1808c-16.4 0-32.8-6.2-45.3-18.7-25-25-25-65.5 0-90.5l1488-1488c25-25 65.5-25 90.5 0s25 65.5 0 90.5l-1488 1488c-12.4 12.5-28.8 18.7-45.2 18.7z" data-original="#000000" class="active-path" data-old_color="#000000" fill="#466492"/></g><g><path d="m1744 1808c-16.4 0-32.8-6.2-45.3-18.7l-1488-1488c-25-25-25-65.5 0-90.5s65.5-25 90.5 0l1488 1488c25 25 25 65.5 0 90.5-12.4 12.5-28.8 18.7-45.2 18.7z" data-original="#000000" class="active-path" data-old_color="#000000" fill="#466492"/></g></g></g> </svg>
