<?xml version="1.0" encoding="utf-8"?>
<!-- Generator: Adobe Illustrator 24.0.2, SVG Export Plug-In . SVG Version: 6.00 Build 0)  -->
<svg version="1.1" id="Layer_1" xmlns="http://www.w3.org/2000/svg" xmlns:xlink="http://www.w3.org/1999/xlink" x="0px" y="0px"
	 viewBox="0 0 512 512" style="enable-background:new 0 0 512 512;" xml:space="preserve">
<style type="text/css">
	.st0{fill:#466492;}
</style>
<g>
	<g id="surface1">
		<path class="st0" d="M329.9,3c-2.3-2.5-5.6-4-8.9-4H121.3C84.4-1,54,29.3,54,66.2v377.7c0,36.9,30.4,67.2,67.3,67.2h271.1
			c36.9,0,67.3-30.3,67.3-67.2V143.9c0-3.2-1.5-6.3-3.6-8.7L329.9,3z M333.5,42.7l84.5,88.7h-54.9c-16.3,0-29.6-13.1-29.6-29.4V42.7
			z M392.4,486.3H121.3c-23.1,0-42.5-19.2-42.5-42.4V66.2c0-23.1,19.3-42.4,42.5-42.4h187.5v78.2c0,30.1,24.2,54.2,54.3,54.2h71.9
			v287.8C434.9,467.1,415.6,486.3,392.4,486.3z"/>
		<path class="st0" d="M358.6,400.9H155c-6.8,0-12.4,5.6-12.4,12.4c0,6.8,5.6,12.4,12.4,12.4h203.7c6.8,0,12.4-5.6,12.4-12.4
			C371.1,406.5,365.5,400.9,358.6,400.9z"/>
		<path class="st0" d="M319.9,261.9l-51,54.8V181.7c0-6.8-5.6-12.4-12.4-12.4c-6.8,0-12.4,5.6-12.4,12.4v135.1l-51-54.8
			c-2.5-2.6-5.7-4-9-4c-3,0-6.1,1.1-8.4,3.3c-4.9,4.7-5.3,12.5-0.6,17.4l72.5,77.8c2.4,2.5,5.6,4,9,4c3.5,0,6.7-1.5,9-4l72.5-77.8
			c4.7-4.9,4.3-12.9-0.6-17.4C332.4,256.6,324.6,257,319.9,261.9z"/>
	</g>
</g>
</svg>
