<?xml version="1.0" encoding="utf-8"?>
<!-- Generator: Adobe Illustrator 24.0.2, SVG Export Plug-In . SVG Version: 6.00 Build 0)  -->
<svg version="1.1" id="Layer_1" xmlns="http://www.w3.org/2000/svg" xmlns:xlink="http://www.w3.org/1999/xlink" x="0px" y="0px"
	 viewBox="0 0 2098.13 340.05" style="enable-background:new 0 0 2098.13 340.05;" xml:space="preserve">
<style type="text/css">
	.st0{fill:#FFFFFF;stroke:#FFFFFF;stroke-width:10;stroke-miterlimit:10;}
	.st1{fill:#FFFFFF;stroke:#FFFFFF;stroke-miterlimit:10;}
	.st2{fill:#FFFFFF;}
	.st3{fill:#3853A9;}
	.st4{fill:#6D6E72;}
	.st5{fill:#FF0000;}
</style>
<g>
	<g>
		<g>
			<path class="st0" d="M592.61,127.25c2.47,0.04,4.94,0.1,7.4,0.13c-1.45,48.38-41.02,87.18-89.75,87.18
				c-49.65,0-89.89-40.25-89.89-89.89c0-49.65,40.25-89.89,89.89-89.89c38.23,0,70.8,23.91,83.8,57.55
				c7.19,0.11,14.38,0.19,21.57,0.19c-13.76-45.15-55.71-78.01-105.36-78.01c-60.84,0-110.16,49.32-110.16,110.16
				c0,60.84,49.32,110.16,110.16,110.16c59.91,0,108.54-47.84,110.02-107.39C611.06,127.48,601.84,127.4,592.61,127.25z"/>
		</g>
	</g>
	<polygon class="st0" points="610.53,149.91 482.15,149.91 482.15,127.26 617.58,127.26 	"/>
</g>
<g>
	<polygon class="st0" points="962.1,126.56 962.1,235.43 980.86,235.43 980.86,125.03 	"/>
	<path class="st0" d="M870.7,13.75c-60.84,0-110.16,49.32-110.16,110.16s49.32,110.16,110.16,110.16s110.16-49.32,110.16-110.16
		S931.54,13.75,870.7,13.75z M870.7,215.31c-50.48,0-91.4-40.92-91.4-91.4s40.92-91.4,91.4-91.4c50.48,0,91.4,40.92,91.4,91.4
		S921.18,215.31,870.7,215.31z"/>
</g>
<g>
	<polygon class="st0" points="1847.68,125.77 1847.68,234.64 1866.44,234.64 1866.44,124.24 	"/>
	<path class="st0" d="M1756.28,12.95c-60.84,0-110.16,49.32-110.16,110.16s49.32,110.16,110.16,110.16s110.16-49.32,110.16-110.16
		S1817.12,12.95,1756.28,12.95z M1756.28,214.51c-50.48,0-91.4-40.92-91.4-91.4s40.92-91.4,91.4-91.4c50.48,0,91.4,40.92,91.4,91.4
		S1806.76,214.51,1756.28,214.51z"/>
</g>
<g>
	<polygon class="st0" points="1176.85,178.99 1176.85,329.56 1154.19,329.56 1154.19,146.7 	"/>
	<path class="st0" d="M1264.35,14.25c-60.84,0-110.16,49.32-110.16,110.16s49.32,110.16,110.16,110.16
		c60.84,0,110.16-49.32,110.16-110.16S1325.19,14.25,1264.35,14.25z M1264.35,215.81c-50.48,0-91.4-40.92-91.4-91.4
		s40.92-91.4,91.4-91.4c50.48,0,91.4,40.92,91.4,91.4S1314.83,215.81,1264.35,215.81z"/>
</g>
<g>
	<g>
		<polygon class="st0" points="667.36,126.59 667.36,234.47 649.77,234.47 649.77,124.36 		"/>
		<path class="st0" d="M649.77,128.73l17.41,5.01c1.04-52.16,40.51-99.25,89.78-101.13V14.25
			C698.08,16.14,650.81,66.43,649.77,128.73z"/>
	</g>
</g>
<g>
	<rect x="1889.75" y="7.41" class="st1" width="29.48" height="233.65"/>
	<g>
		<g>
			<polygon class="st1" points="1965.12,77.06 1982.75,95.16 2068.17,7.41 2032.93,7.41 			"/>
		</g>
	</g>
	<g>
		<g>
			<polygon class="st1" points="2022.28,54.58 2004.65,36.48 1919.23,124.23 1954.47,124.23 			"/>
		</g>
	</g>
	<g>
		<g>
			<polygon class="st1" points="1965.12,171.41 1982.75,153.31 2068.17,241.06 2032.93,241.06 			"/>
		</g>
	</g>
	<g>
		<g>
			<polygon class="st1" points="2022.28,193.47 2004.65,211.58 1919.23,123.82 1954.47,123.82 			"/>
		</g>
	</g>
</g>
<g>
	<g>
		<path class="st0" d="M1592.67,121.84c2.47-0.04,4.94-0.1,7.4-0.13c-1.44-48.38-41.02-87.18-89.75-87.18
			c-49.65,0-89.89,40.25-89.89,89.89c0,49.65,40.25,89.89,89.89,89.89c38.23,0,70.8-23.91,83.8-57.55
			c7.19-0.11,14.38-0.19,21.57-0.19c-13.76,45.15-55.71,78.01-105.36,78.01c-60.84,0-110.16-49.32-110.16-110.16
			c0-60.84,49.32-110.16,110.16-110.16c59.91,0,108.54,47.84,110.02,107.39C1611.12,121.61,1601.89,121.69,1592.67,121.84z"/>
		<polygon class="st2" points="1421.27,130.61 1627.19,130.61 1622.74,99.71 1421.27,99.71 		"/>
	</g>
</g>
<g>
	<g>
		<polygon class="st0" points="1058.79,134.43 1058.79,235.43 1077.56,235.43 1077.56,133.01 		"/>
		<polygon class="st0" points="1077.56,192.35 1077.56,91.34 1058.79,91.34 1058.79,193.77 		"/>
	</g>
	<g>
		<g>
			<path class="st0" d="M1070.45,106.8c3.04-1.92-4.22-14.2-1.39-16.34l-44.35-44.35l-12.19,14.35l46.33,46.33H1070.45z"/>
			<polygon class="st0" points="1069.93,91.34 992.95,14.36 965.81,13.75 1057.75,105.69 			"/>
		</g>
	</g>
	<g>
		<g>
			<path class="st0" d="M1065.97,106.8c-3.04-1.92,4.22-14.2,1.39-16.34l44.35-44.35l12.19,14.35l-46.33,46.33H1065.97z"/>
			<polygon class="st0" points="1066.48,91.34 1143.47,14.36 1170.61,13.75 1078.67,105.69 			"/>
		</g>
	</g>
</g>
<g>
	<path class="st2" d="M1712.64,339.81h-20.59v-36.92h-30.4v36.92h-20.59v-83.81h20.59v30.68h30.4v-30.68h20.59V339.81z"/>
	<path class="st2" d="M1820.1,339.81h-46.75v-14.86h13.08v-54.09h-13.08v-14.86h46.75v14.86h-13.08v54.09h13.08V339.81z"/>
	<path class="st2" d="M1957.69,339.81h-25.15l-21.72-30.73h-9.54v30.73h-20.48v-83.81h34.53c4.72,0,8.78,0.28,12.17,0.84
		c3.4,0.56,6.58,1.78,9.54,3.66c3,1.88,5.39,4.31,7.16,7.29c1.77,2.98,2.65,6.73,2.65,11.23c0,6.19-1.37,11.24-4.1,15.14
		s-6.64,7.15-11.72,9.74L1957.69,339.81z M1925.58,281.66c0-2.1-0.41-3.9-1.23-5.4c-0.82-1.5-2.23-2.68-4.24-3.55
		c-1.39-0.6-3.02-0.97-4.88-1.1c-1.86-0.13-4.02-0.2-6.49-0.2h-7.45v22.57h6.33c3.29,0,6.04-0.17,8.26-0.51
		c2.22-0.34,4.08-1.11,5.58-2.31c1.43-1.16,2.47-2.45,3.14-3.86C1925.25,285.91,1925.58,284.02,1925.58,281.66z"/>
	<path class="st2" d="M2068.37,339.81h-57.75v-83.81h57.75v16.21h-37.26v14.47h34.58v16.21h-34.58v20.71h37.26V339.81z"/>
</g>
<g>
	<rect x="6" y="6.28" class="st2" width="348.19" height="327.48"/>
	<g>
		<path class="st2" d="M354.19,327.76c-11.52,0-23.04,0-34.57,0c-27.68,0-55.36,0-83.03,0c-33.5,0-67,0-100.51,0
			c-28.99,0-57.99,0-86.98,0c-9.58,0-19.16,0-28.74,0c-4.4,0-9.37-0.66-13.73,0c-0.2,0.03-0.43,0-0.63,0c2,2,4,4,6,6
			c0-36.9,0-73.79,0-110.69c0-58.79,0-117.58,0-176.37c0-13.47,0-26.94,0-40.41c-2,2-4,4-6,6c11.52,0,23.04,0,34.57,0
			c27.68,0,55.36,0,83.03,0c33.5,0,67,0,100.51,0c28.99,0,57.99,0,86.98,0c9.58,0,19.16,0,28.74,0c4.4,0,9.37,0.66,13.73,0
			c0.2-0.03,0.43,0,0.63,0c-2-2-4-4-6-6c0,36.9,0,73.79,0,110.69c0,58.79,0,117.58,0,176.37c0,13.47,0,26.94,0,40.41
			c0,7.72,12,7.73,12,0c0-36.9,0-73.79,0-110.69c0-58.79,0-117.58,0-176.37c0-13.47,0-26.94,0-40.41c0-3.24-2.75-6-6-6
			c-11.52,0-23.04,0-34.57,0c-27.68,0-55.36,0-83.03,0c-33.5,0-67,0-100.51,0c-28.99,0-57.99,0-86.98,0c-14.1,0-28.37-0.64-42.47,0
			c-0.21,0.01-0.42,0-0.63,0c-3.24,0-6,2.75-6,6c0,36.9,0,73.79,0,110.69c0,58.79,0,117.58,0,176.37c0,13.47,0,26.94,0,40.41
			c0,3.24,2.75,6,6,6c11.52,0,23.04,0,34.57,0c27.68,0,55.36,0,83.03,0c33.5,0,67,0,100.51,0c28.99,0,57.99,0,86.98,0
			c14.1,0,28.37,0.64,42.47,0c0.21-0.01,0.42,0,0.63,0C361.91,339.76,361.93,327.76,354.19,327.76z"/>
	</g>
</g>
<g>
	<polygon class="st3" points="6,5.28 6,250.7 112.83,144.41 184.03,215.25 354.19,45.96 354.19,5.28 	"/>
	<polygon class="st4" points="109.21,212.85 6,315.53 6,334.24 354.19,334.24 354.19,127.6 188.86,292.09 	"/>
</g>
<g>
	<path class="st5" d="M567.89,332.36H396.24V7.7h61.37v261.86h110.28V332.36z"/>
	<path class="st5" d="M967.16,170.14c0,51.75-10.87,92.85-32.6,123.3c-21.74,30.45-51.78,45.68-90.14,45.68
		c-38.25,0-68.24-15.22-89.98-45.68c-21.74-30.45-32.6-71.55-32.6-123.3c0-52.18,10.87-93.43,32.6-123.74s51.73-45.46,89.98-45.46
		c38.14,0,68.14,15.15,89.98,45.46C956.24,76.71,967.16,117.96,967.16,170.14z M885.81,252.34c5.97-9.88,10.39-21.55,13.27-35
		c2.88-13.44,4.32-29.25,4.32-47.42c0-19.48-1.65-36.05-4.95-49.71c-3.3-13.66-7.62-24.71-12.95-33.14
		c-5.43-8.72-11.69-15.04-18.78-18.97c-7.09-3.92-14.46-5.89-22.14-5.89c-7.78,0-15.1,1.89-21.98,5.67
		c-6.87,3.78-13.19,10.03-18.94,18.75c-5.33,8.14-9.67,19.37-13.03,33.69c-3.36,14.32-5.03,30.93-5.03,49.82
		c0,19.33,1.62,35.8,4.87,49.39c3.25,13.59,7.54,24.68,12.87,33.25c5.33,8.58,11.56,14.9,18.7,18.97c7.14,4.07,14.65,6.1,22.54,6.1
		c7.88,0,15.4-2.07,22.54-6.21C874.25,267.49,880.48,261.06,885.81,252.34z"/>
	<path class="st5" d="M1252.47,338.68c-17.69,0-34.02-3.56-48.99-10.68c-14.97-7.12-27.84-17.73-38.6-31.83
		c-10.76-14.1-19.1-31.69-25.01-52.76c-5.91-21.08-8.87-45.42-8.87-73.04c0-25.73,2.82-49.06,8.47-69.99
		c5.65-20.93,13.85-38.88,24.61-53.85c10.33-14.39,23.15-25.51,38.44-33.36c15.29-7.85,31.99-11.77,50.1-11.77
		c10.01,0,19.04,0.76,27.09,2.29c8.04,1.53,15.48,3.53,22.29,6c7.14,2.76,13.61,5.85,19.42,9.27c5.81,3.42,10.89,6.58,15.26,9.48
		v78.71h-7.03c-2.98-3.47-6.74-7.59-11.27-12.36c-4.53-4.77-9.67-9.47-15.42-14.1c-5.86-4.63-12.2-8.53-19.02-11.71
		c-6.82-3.18-14.12-4.77-21.9-4.77c-8.63,0-16.84,1.85-24.61,5.55c-7.78,3.7-14.97,9.83-21.58,18.39
		c-6.29,8.27-11.38,19.22-15.26,32.86c-3.89,13.63-5.83,30.17-5.83,49.61c0,20.31,2.1,37.28,6.31,50.92
		c4.21,13.64,9.51,24.37,15.9,32.2c6.5,7.98,13.75,13.67,21.74,17.08c7.99,3.41,15.88,5.11,23.65,5.11c7.46,0,14.84-1.52,22.14-4.55
		c7.3-3.04,14.04-7.16,20.22-12.37c5.22-4.19,10.07-8.67,14.54-13.45c4.47-4.77,8.15-8.9,11.03-12.37h6.39v77.62
		c-5.97,3.64-11.67,7.05-17.1,10.25c-5.43,3.2-11.13,5.96-17.1,8.29c-7.78,3.05-15.08,5.38-21.9,6.98
		C1273.78,337.88,1264.41,338.68,1252.47,338.68z"/>
	<path class="st5" d="M1732.61,332.36h-63.38l-16.58-65.63h-88.06l-16.58,65.63h-61.85l87.9-324.66h70.64L1732.61,332.36z
		 M1637.9,207.21L1608.63,90.9l-29.28,116.31H1637.9z"/>
	<path class="st5" d="M2069.39,332.36h-171.65V7.7h61.37v261.86h110.28V332.36z"/>
</g>
</svg>
