<?xml version="1.0"?>
<svg xmlns="http://www.w3.org/2000/svg" height="512px" viewBox="0 0 100 100" width="512px"><g><g id="Artboard" fill="none" fill-rule="evenodd"><path id="post-it" d="m76 19 .0016507 25.5501412c.0604826 10.0189307 1.7805556 16.3533615 4.7553965 19.0042539l.163506.1409411 6.3655966 5.3046638h-11.2861498l-.001 5.935-7.077 7.065h-55.922v-56l7-7zm-4.237 56h-49.643l-4 4h49.644zm-51.764-51.686-4 4v49.565l4-4zm3.0009328 39.4114121v9.2745879h50.0000672v-3h-45.0861498l-.8344034-.6953362c-1.6646932-1.3872443-3.0185314-3.2470091-4.079514-5.5792517zm50.0000672-40.7254121h-50l.0017836 22.5826397c.0665874 10.809354 1.9976219 17.8898137 5.7931034 21.2413793l.205113.175981h50l-.205113-.175981c-3.7954815-3.3515656-5.726516-10.4320253-5.7931034-21.2413793zm-6 31v3h-36v-3zm0-8v3h-36v-3zm0-8v3h-36v-3zm0-8v3h-36v-3z" fill="#466492" data-original="#000000" class="active-path" data-old_color="rgb(0,0,0)"/></g></g> </svg>
