<?xml version="1.0" encoding="UTF-8"?>
<svg width="16px" height="16px" viewBox="0 0 16 16" version="1.1" xmlns="http://www.w3.org/2000/svg" xmlns:xlink="http://www.w3.org/1999/xlink">
    <title>7090FD65-0227-467A-898B-CED329E6CCBD@1x</title>
    <g id="GrayPeakHire" stroke="none" stroke-width="1" fill="none" fill-rule="evenodd">
        <g id="GreyPeakHire---Final" transform="translate(-1594.000000, -494.000000)" fill="#9E9E9E">
            <g id="Group-25" transform="translate(1578.000000, 104.000000)">
                <g id="Group-28" transform="translate(16.000000, 390.000000)">
                    <g id="thumb_up-24px" transform="translate(0.666667, 0.666667)">
                        <path d="M5.33333333,13.3333333 L11.3333333,13.3333333 C11.8866667,13.3333333 12.36,13 12.56,12.52 L14.5733333,7.82 C14.6333333,7.66666667 14.6666667,7.50666667 14.6666667,7.33333333 L14.6666667,6 C14.6666667,5.26666667 14.0666667,4.66666667 13.3333333,4.66666667 L9.12666667,4.66666667 L9.76,1.62 L9.78,1.40666667 C9.78,1.13333333 9.66666667,0.88 9.48666667,0.7 L8.78,0 L4.38666667,4.39333333 C4.14666667,4.63333333 4,4.96666667 4,5.33333333 L4,12 C4,12.7333333 4.6,13.3333333 5.33333333,13.3333333 Z M5.33333333,5.33333333 L8.22666667,2.44 L7.33333333,6 L13.3333333,6 L13.3333333,7.33333333 L11.3333333,12 L5.33333333,12 L5.33333333,5.33333333 Z M0,5.33333333 L2.66666667,5.33333333 L2.66666667,13.3333333 L0,13.3333333 L0,5.33333333 Z" id="Shape"></path>
                    </g>
                </g>
            </g>
        </g>
    </g>
</svg>