<?xml version="1.0" encoding="UTF-8"?>
<svg width="32px" height="32px" viewBox="0 0 32 32" version="1.1" xmlns="http://www.w3.org/2000/svg" xmlns:xlink="http://www.w3.org/1999/xlink">
    <title>A61D97A4-2D1A-45FF-B4D0-B158475D8DA9@1x</title>
    <g id="GrayPeakHire" stroke="none" stroke-width="1" fill="none" fill-rule="evenodd">
        <g id="GreyPeakHire---Final" transform="translate(-354.000000, -988.000000)" fill="#28AC58">
            <g id="Group-17" transform="translate(330.000000, 104.000000)">
                <g id="Group-11" transform="translate(16.000000, 237.000000)">
                    <g id="Group-14" transform="translate(0.000000, 349.000000)">
                        <g id="Avatar-/-Inicials" transform="translate(8.000000, 298.000000)">
                            <path d="M16,0 C24.836556,0 32,7.163444 32,16 C32,24.836556 24.836556,32 16,32 C7.163444,32 0,24.836556 0,16 C0,7.163444 7.163444,0 16,0 Z M16,18 C13.33,18 8,19.34 8,22 L8,24 L24,24 L24,22 C24,19.34 18.67,18 16,18 Z M16,8 C13.79,8 12,9.79 12,12 C12,14.21 13.79,16 16,16 C18.21,16 20,14.21 20,12 C20,9.79 18.21,8 16,8 Z" id="Combined-Shape"></path>
                        </g>
                    </g>
                </g>
            </g>
        </g>
    </g>
</svg>