<?xml version="1.0" encoding="UTF-8"?>
<svg width="33px" height="33px" viewBox="0 0 33 33" version="1.1" xmlns="http://www.w3.org/2000/svg" xmlns:xlink="http://www.w3.org/1999/xlink">
    <title>E35D29D8-6CB4-47C1-B415-88B3172AA25B@1x</title>
    <g id="GrayPeakHire" stroke="none" stroke-width="1" fill="none" fill-rule="evenodd">
        <g id="GreyPeakHire---Final" transform="translate(-1595.000000, -120.000000)" fill="#FFFFFF">
            <g id="Group-25" transform="translate(1578.000000, 104.000000)">
                <g id="Avatar-/-Inicials" transform="translate(17.000000, 16.000000)">
                    <path d="M16.5,0 C25.6126984,0 33,7.38730163 33,16.5 C33,25.6126984 25.6126984,33 16.5,33 C7.38730163,33 0,25.6126984 0,16.5 C0,7.38730163 7.38730163,0 16.5,0 Z M16.5,18.5625 C13.7465625,18.5625 8.25,19.944375 8.25,22.6875 L8.25,24.75 L24.75,24.75 L24.75,22.6875 C24.75,19.944375 19.2534375,18.5625 16.5,18.5625 Z M16.5,8.25 C14.2209375,8.25 12.375,10.0959375 12.375,12.375 C12.375,14.6540625 14.2209375,16.5 16.5,16.5 C18.7790625,16.5 20.625,14.6540625 20.625,12.375 C20.625,10.0959375 18.7790625,8.25 16.5,8.25 Z" id="Combined-Shape"></path>
                </g>
            </g>
        </g>
    </g>
</svg>